<svg xmlns="http://www.w3.org/2000/svg" xmlns:xlink="http://www.w3.org/1999/xlink" width="500" zoomAndPan="magnify" viewBox="0 0 375 374.999991" height="500" preserveAspectRatio="xMidYMid meet" version="1.0"><defs><g/><clipPath id="309c148909"><path d="M 77.4375 0 L 297.9375 0 L 297.9375 220.5 L 77.4375 220.5 Z M 77.4375 0 " clip-rule="nonzero"/></clipPath></defs><g clip-path="url(#309c148909)"><path fill="#424242" d="M 183.359375 160.9375 L 128.832031 87.289062 L 91.960938 137.089844 C 89.539062 128.496094 88.238281 119.433594 88.238281 110.0625 C 88.238281 55.242188 132.683594 10.800781 187.503906 10.800781 C 242.324219 10.800781 286.765625 55.242188 286.765625 110.0625 C 286.765625 114.691406 286.449219 119.242188 285.835938 123.703125 L 294.605469 135.542969 C 296.542969 127.367188 297.570312 118.835938 297.570312 110.0625 C 297.566406 49.277344 248.289062 0 187.5 0 C 126.714844 0 77.4375 49.277344 77.4375 110.0625 C 77.4375 123.304688 79.777344 136 84.0625 147.757812 C 85.609375 152.007812 87.410156 156.128906 89.449219 160.113281 L 96.722656 150.28125 L 128.828125 106.917969 L 179.078125 174.792969 L 186.179688 184.382812 L 215.804688 144.363281 L 215.878906 144.261719 L 229.871094 163.160156 L 232.929688 167.289062 L 247.46875 167.289062 L 245.433594 164.539062 L 215.882812 124.625 L 179.078125 174.792969 Z M 145.335938 87.289062 L 186.476562 142.78125 L 206.6875 115.484375 L 192.886719 96.875 L 215.808594 65.914062 L 278.277344 150.285156 C 262.839844 185.066406 228.003906 209.324219 187.5 209.324219 C 151.441406 209.324219 119.875 190.101562 102.488281 161.34375 L 95.597656 170.652344 C 115.289062 200.460938 149.097656 220.128906 187.496094 220.128906 C 230.257812 220.128906 267.324219 195.738281 285.546875 160.117188 C 287.582031 156.132812 289.386719 152.007812 290.933594 147.761719 L 283.03125 137.089844 L 215.808594 46.277344 L 185.449219 87.289062 L 173.632812 87.289062 L 173.632812 81.199219 L 163.867188 81.199219 L 163.867188 94.003906 L 159.359375 87.289062 Z M 145.335938 87.289062 " fill-opacity="1" fill-rule="evenodd"/></g><g fill="#000000" fill-opacity="1"><g transform="translate(1.519041, 289.075469)"><g><path d="M 43.53125 -3.546875 C 43.363281 -4.097656 43.238281 -4.867188 43.15625 -5.859375 C 43.082031 -6.847656 43.03125 -7.914062 43 -9.0625 C 42.96875 -10.21875 42.9375 -11.398438 42.90625 -12.609375 C 42.882812 -13.816406 42.789062 -14.972656 42.625 -16.078125 C 42.300781 -18.273438 41.753906 -20.085938 40.984375 -21.515625 C 40.210938 -22.941406 39.273438 -24.109375 38.171875 -25.015625 C 37.078125 -25.929688 35.8125 -26.648438 34.375 -27.171875 C 32.945312 -27.691406 31.410156 -28.171875 29.765625 -28.609375 C 34.054688 -29.378906 37.351562 -30.90625 39.65625 -33.1875 C 41.96875 -35.46875 43.125 -38.335938 43.125 -41.796875 C 43.125 -43.941406 42.671875 -45.863281 41.765625 -47.5625 C 40.859375 -49.269531 39.632812 -50.703125 38.09375 -51.859375 C 36.550781 -53.015625 34.722656 -53.894531 32.609375 -54.5 C 30.492188 -55.101562 28.253906 -55.40625 25.890625 -55.40625 L 2.640625 -55.40625 L 2.640625 -54.09375 L 9.734375 -54.09375 L 9.734375 -1.3125 L 2.640625 -1.3125 L 2.640625 0 L 24.8125 0 L 24.8125 -1.3125 L 17.734375 -1.3125 L 17.734375 -28.28125 L 24.578125 -28.28125 C 25.453125 -28.28125 26.382812 -28.128906 27.375 -27.828125 C 28.363281 -27.523438 29.285156 -26.945312 30.140625 -26.09375 C 30.992188 -25.238281 31.734375 -24.054688 32.359375 -22.546875 C 32.992188 -21.035156 33.445312 -19.097656 33.71875 -16.734375 C 33.882812 -15.304688 33.976562 -13.847656 34 -12.359375 C 34.03125 -10.878906 34.113281 -9.453125 34.25 -8.078125 C 34.394531 -6.703125 34.644531 -5.4375 35 -4.28125 C 35.351562 -3.132812 35.914062 -2.144531 36.6875 -1.3125 C 37.40625 -0.550781 38.242188 -0.0351562 39.203125 0.234375 C 40.171875 0.515625 41.203125 0.65625 42.296875 0.65625 C 43.234375 0.65625 44.164062 0.554688 45.09375 0.359375 C 46.03125 0.171875 46.894531 -0.0546875 47.6875 -0.328125 C 48.488281 -0.597656 49.175781 -0.882812 49.75 -1.1875 C 50.332031 -1.5 50.757812 -1.789062 51.03125 -2.0625 C 51.195312 -2.226562 51.28125 -2.394531 51.28125 -2.5625 C 51.28125 -2.71875 51.195312 -2.796875 51.03125 -2.796875 C 50.925781 -2.796875 50.765625 -2.742188 50.546875 -2.640625 C 49.441406 -1.867188 48.203125 -1.484375 46.828125 -1.484375 C 45.128906 -1.484375 44.03125 -2.171875 43.53125 -3.546875 Z M 17.734375 -29.59375 L 17.734375 -54.09375 L 25.890625 -54.09375 C 32.160156 -54.09375 35.296875 -50.488281 35.296875 -43.28125 L 35.296875 -40.3125 C 35.296875 -33.164062 32.160156 -29.59375 25.890625 -29.59375 Z M 17.734375 -29.59375 "/></g></g></g><g fill="#000000" fill-opacity="1"><g transform="translate(61.133154, 289.075469)"><g><path d="M 28.859375 1.5625 C 32.378906 1.5625 35.691406 0.753906 38.796875 -0.859375 C 41.898438 -2.484375 44.601562 -4.640625 46.90625 -7.328125 C 49.21875 -10.023438 51.046875 -13.117188 52.390625 -16.609375 C 53.742188 -20.097656 54.421875 -23.710938 54.421875 -27.453125 C 54.421875 -31.191406 53.742188 -34.804688 52.390625 -38.296875 C 51.046875 -41.785156 49.21875 -44.863281 46.90625 -47.53125 C 44.601562 -50.195312 41.898438 -52.328125 38.796875 -53.921875 C 35.691406 -55.515625 32.378906 -56.3125 28.859375 -56.3125 C 25.335938 -56.3125 22.023438 -55.515625 18.921875 -53.921875 C 15.816406 -52.328125 13.109375 -50.195312 10.796875 -47.53125 C 8.492188 -44.863281 6.664062 -41.785156 5.3125 -38.296875 C 3.96875 -34.804688 3.296875 -31.191406 3.296875 -27.453125 C 3.296875 -23.710938 3.96875 -20.097656 5.3125 -16.609375 C 6.664062 -13.117188 8.492188 -10.023438 10.796875 -7.328125 C 13.109375 -4.640625 15.816406 -2.484375 18.921875 -0.859375 C 22.023438 0.753906 25.335938 1.5625 28.859375 1.5625 Z M 28.859375 -54.828125 C 31.328125 -54.828125 33.523438 -54.441406 35.453125 -53.671875 C 37.378906 -52.898438 38.988281 -51.609375 40.28125 -49.796875 C 41.570312 -47.984375 42.5625 -45.59375 43.25 -42.625 C 43.9375 -39.65625 44.28125 -35.972656 44.28125 -31.578125 L 44.28125 -23.328125 C 44.28125 -15.359375 42.957031 -9.460938 40.3125 -5.640625 C 37.675781 -1.828125 33.859375 0.078125 28.859375 0.078125 C 23.859375 0.078125 20.035156 -1.828125 17.390625 -5.640625 C 14.753906 -9.460938 13.4375 -15.359375 13.4375 -23.328125 L 13.4375 -31.578125 C 13.4375 -35.867188 13.78125 -39.484375 14.46875 -42.421875 C 15.15625 -45.359375 16.144531 -47.75 17.4375 -49.59375 C 18.726562 -51.4375 20.332031 -52.769531 22.25 -53.59375 C 24.175781 -54.414062 26.378906 -54.828125 28.859375 -54.828125 Z M 28.859375 -54.828125 "/></g></g></g><g fill="#000000" fill-opacity="1"><g transform="translate(125.941808, 289.075469)"><g><path d="M 17.8125 -28.53125 L 24.328125 -28.53125 C 25.535156 -28.53125 26.492188 -28.347656 27.203125 -27.984375 C 27.921875 -27.628906 28.484375 -27.125 28.890625 -26.46875 C 29.304688 -25.8125 29.625 -25.015625 29.84375 -24.078125 C 30.0625 -23.140625 30.28125 -22.09375 30.5 -20.9375 C 30.664062 -20.164062 30.890625 -19.78125 31.171875 -19.78125 C 31.492188 -19.78125 31.65625 -20.140625 31.65625 -20.859375 L 31.65625 -37.59375 C 31.65625 -38.257812 31.492188 -38.59375 31.171875 -38.59375 C 30.890625 -38.59375 30.664062 -38.207031 30.5 -37.4375 C 30.28125 -36.28125 30.0625 -35.234375 29.84375 -34.296875 C 29.625 -33.367188 29.304688 -32.570312 28.890625 -31.90625 C 28.484375 -31.25 27.921875 -30.738281 27.203125 -30.375 C 26.492188 -30.019531 25.535156 -29.84375 24.328125 -29.84375 L 17.8125 -29.84375 L 17.8125 -54.09375 L 30.34375 -54.09375 C 32.207031 -54.09375 33.769531 -53.640625 35.03125 -52.734375 C 36.300781 -51.828125 37.320312 -50.695312 38.09375 -49.34375 C 38.863281 -48 39.425781 -46.570312 39.78125 -45.0625 C 40.132812 -43.550781 40.34375 -42.191406 40.40625 -40.984375 C 40.40625 -40.210938 40.625 -39.828125 41.0625 -39.828125 C 41.445312 -39.828125 41.640625 -40.179688 41.640625 -40.890625 L 41.640625 -53.421875 C 41.640625 -54.742188 40.953125 -55.40625 39.578125 -55.40625 L 2.71875 -55.40625 L 2.71875 -54.09375 L 9.8125 -54.09375 L 9.8125 -1.3125 L 2.796875 -1.3125 L 2.796875 0 L 41.5625 0 C 43.15625 0 43.953125 -0.878906 43.953125 -2.640625 L 43.953125 -15 C 43.953125 -16.320312 43.726562 -16.984375 43.28125 -16.984375 C 42.894531 -16.984375 42.59375 -16.40625 42.375 -15.25 C 41.9375 -13.164062 41.46875 -11.269531 40.96875 -9.5625 C 40.476562 -7.863281 39.820312 -6.394531 39 -5.15625 C 38.175781 -3.914062 37.128906 -2.960938 35.859375 -2.296875 C 34.597656 -1.640625 33.003906 -1.3125 31.078125 -1.3125 L 17.8125 -1.3125 Z M 17.8125 -28.53125 "/></g></g></g><g fill="#000000" fill-opacity="1"><g transform="translate(181.103449, 289.075469)"><g><path d="M 2.796875 -1.3125 L 2.796875 0 L 17.3125 0 L 17.3125 -1.3125 L 10.71875 -1.3125 L 10.71875 -52.6875 L 29.109375 0 L 30.171875 0 L 48.5625 -53.015625 L 48.5625 -1.3125 L 41.96875 -1.3125 L 41.96875 0 L 63.15625 0 L 63.15625 -1.3125 L 56.5625 -1.3125 L 56.5625 -54.09375 L 63.15625 -54.09375 L 63.15625 -55.40625 L 47.90625 -55.40625 L 33.234375 -13.03125 L 18.0625 -55.40625 L 2.796875 -55.40625 L 2.796875 -54.09375 L 9.40625 -54.09375 L 9.40625 -1.3125 Z M 2.796875 -1.3125 "/></g></g></g><g fill="#000000" fill-opacity="1"><g transform="translate(254.652127, 289.075469)"><g><path d="M 1.8125 -1.3125 L 1.8125 0 L 20.125 0 L 20.125 -1.3125 L 10.390625 -1.3125 L 15.578125 -17.234375 L 32.15625 -17.234375 L 37.515625 -1.3125 L 29.03125 -1.3125 L 29.03125 0 L 53.1875 0 L 53.1875 -1.3125 L 46.015625 -1.3125 L 27.953125 -56.15625 L 26.96875 -56.15625 L 8.90625 -1.3125 Z M 23.828125 -42.140625 L 31.75 -18.546875 L 16.078125 -18.546875 Z M 23.828125 -42.140625 "/></g></g></g><g fill="#000000" fill-opacity="1"><g transform="translate(316.987175, 289.075469)"><g><path d="M 24.90625 -55.40625 L 2.71875 -55.40625 L 2.71875 -54.09375 L 9.8125 -54.09375 L 9.8125 -1.3125 L 2.71875 -1.3125 L 2.71875 0 L 24.90625 0 L 24.90625 -1.3125 L 17.8125 -1.3125 L 17.8125 -28.78125 L 39.65625 -28.78125 L 39.65625 -1.3125 L 32.5625 -1.3125 L 32.5625 0 L 54.75 0 L 54.75 -1.3125 L 47.65625 -1.3125 L 47.65625 -54.09375 L 54.75 -54.09375 L 54.75 -55.40625 L 32.5625 -55.40625 L 32.5625 -54.09375 L 39.65625 -54.09375 L 39.65625 -30.171875 L 17.8125 -30.171875 L 17.8125 -54.09375 L 24.90625 -54.09375 Z M 24.90625 -55.40625 "/></g></g></g><g fill="#000000" fill-opacity="1"><g transform="translate(61.617416, 349.874977)"><g><path d="M 15.953125 -29.171875 C 18.566406 -29.171875 20.722656 -28.96875 22.421875 -28.5625 C 24.128906 -28.164062 25.535156 -27.539062 26.640625 -26.6875 C 27.796875 -25.789062 28.550781 -24.804688 28.90625 -23.734375 C 29.269531 -22.671875 29.453125 -21.617188 29.453125 -20.578125 C 29.453125 -20.128906 29.410156 -19.644531 29.328125 -19.125 C 29.253906 -18.613281 29.097656 -18.082031 28.859375 -17.53125 C 28.628906 -16.976562 28.296875 -16.429688 27.859375 -15.890625 C 27.429688 -15.359375 26.863281 -14.875 26.15625 -14.4375 C 25.582031 -14.082031 24.914062 -13.773438 24.15625 -13.515625 C 23.40625 -13.265625 22.601562 -13.066406 21.75 -12.921875 C 20.90625 -12.773438 20.035156 -12.660156 19.140625 -12.578125 C 18.253906 -12.503906 17.398438 -12.46875 16.578125 -12.46875 L 12.46875 -12.46875 L 12.46875 -0.984375 L 16.21875 -0.984375 L 16.21875 0 L 1.875 0 L 1.875 -0.984375 L 5.609375 -0.984375 L 5.609375 -28.203125 L 1.875 -28.203125 L 1.875 -29.171875 Z M 14.703125 -13.453125 C 15.953125 -13.453125 17.109375 -13.546875 18.171875 -13.734375 C 19.242188 -13.929688 20.117188 -14.488281 20.796875 -15.40625 C 21.210938 -16.03125 21.457031 -16.742188 21.53125 -17.546875 C 21.613281 -18.347656 21.65625 -19.132812 21.65625 -19.90625 L 21.65625 -23.078125 C 21.65625 -23.640625 21.601562 -24.269531 21.5 -24.96875 C 21.394531 -25.664062 21.070312 -26.296875 20.53125 -26.859375 C 19.882812 -27.515625 19.066406 -27.898438 18.078125 -28.015625 C 17.097656 -28.140625 16.117188 -28.203125 15.140625 -28.203125 L 12.46875 -28.203125 L 12.46875 -13.453125 Z M 14.703125 -13.453125 "/></g></g></g><g fill="#000000" fill-opacity="1"><g transform="translate(94.259397, 349.874977)"><g><path d="M 2.234375 -14.5625 C 2.234375 -15.570312 2.34375 -16.625 2.5625 -17.71875 C 2.78125 -18.820312 3.132812 -19.90625 3.625 -20.96875 C 4.113281 -22.039062 4.738281 -23.070312 5.5 -24.0625 C 6.257812 -25.0625 7.171875 -25.960938 8.234375 -26.765625 C 9.578125 -27.753906 11.003906 -28.503906 12.515625 -29.015625 C 14.035156 -29.535156 15.503906 -29.796875 16.921875 -29.796875 C 18.441406 -29.796875 19.960938 -29.53125 21.484375 -29 C 23.015625 -28.46875 24.421875 -27.722656 25.703125 -26.765625 C 26.773438 -25.960938 27.6875 -25.070312 28.4375 -24.09375 C 29.195312 -23.113281 29.820312 -22.085938 30.3125 -21.015625 C 30.800781 -19.953125 31.15625 -18.867188 31.375 -17.765625 C 31.601562 -16.671875 31.71875 -15.601562 31.71875 -14.5625 C 31.71875 -12.039062 31.164062 -9.707031 30.0625 -7.5625 C 28.96875 -5.425781 27.515625 -3.691406 25.703125 -2.359375 C 24.453125 -1.410156 23.054688 -0.675781 21.515625 -0.15625 C 19.972656 0.363281 18.441406 0.625 16.921875 0.625 C 15.503906 0.625 14.035156 0.363281 12.515625 -0.15625 C 11.003906 -0.675781 9.578125 -1.410156 8.234375 -2.359375 C 7.140625 -3.160156 6.210938 -4.054688 5.453125 -5.046875 C 4.703125 -6.046875 4.085938 -7.078125 3.609375 -8.140625 C 3.128906 -9.210938 2.78125 -10.296875 2.5625 -11.390625 C 2.34375 -12.492188 2.234375 -13.550781 2.234375 -14.5625 Z M 10.109375 -9.75 C 10.109375 -8.976562 10.179688 -8.066406 10.328125 -7.015625 C 10.484375 -5.960938 10.738281 -5.019531 11.09375 -4.1875 C 11.6875 -2.789062 12.53125 -1.800781 13.625 -1.21875 C 14.726562 -0.644531 15.890625 -0.359375 17.109375 -0.359375 C 18.023438 -0.359375 18.816406 -0.484375 19.484375 -0.734375 C 20.148438 -0.984375 20.707031 -1.300781 21.15625 -1.6875 C 21.601562 -2.070312 21.957031 -2.488281 22.21875 -2.9375 C 22.488281 -3.382812 22.703125 -3.800781 22.859375 -4.1875 C 23.210938 -5.101562 23.460938 -6.046875 23.609375 -7.015625 C 23.753906 -7.984375 23.828125 -8.894531 23.828125 -9.75 L 23.828125 -19.328125 C 23.828125 -19.773438 23.796875 -20.328125 23.734375 -20.984375 C 23.679688 -21.640625 23.570312 -22.304688 23.40625 -22.984375 C 23.25 -23.671875 23.023438 -24.351562 22.734375 -25.03125 C 22.453125 -25.71875 22.101562 -26.3125 21.6875 -26.8125 C 21.21875 -27.351562 20.585938 -27.820312 19.796875 -28.21875 C 19.015625 -28.625 18.054688 -28.828125 16.921875 -28.828125 C 16.242188 -28.828125 15.632812 -28.742188 15.09375 -28.578125 C 14.5625 -28.410156 14.101562 -28.210938 13.71875 -27.984375 C 13.332031 -27.765625 13.019531 -27.546875 12.78125 -27.328125 C 12.539062 -27.109375 12.363281 -26.9375 12.25 -26.8125 C 11.625 -26.101562 11.109375 -25.101562 10.703125 -23.8125 C 10.304688 -22.519531 10.109375 -21.023438 10.109375 -19.328125 Z M 10.109375 -9.75 "/></g></g></g><g fill="#000000" fill-opacity="1"><g transform="translate(129.840449, 349.874977)"><g><path d="M 26.953125 -29.171875 L 27.3125 -19.828125 L 26.0625 -19.828125 C 25.820312 -21.335938 25.476562 -22.492188 25.03125 -23.296875 C 24.582031 -24.097656 24.332031 -24.570312 24.28125 -24.71875 C 23.6875 -25.675781 22.765625 -26.492188 21.515625 -27.171875 C 20.265625 -27.859375 18.660156 -28.203125 16.703125 -28.203125 L 12.46875 -28.203125 L 12.46875 -16.53125 L 15.40625 -16.53125 C 16.445312 -16.53125 17.300781 -16.796875 17.96875 -17.328125 C 18.644531 -17.859375 19.144531 -18.46875 19.46875 -19.15625 C 19.851562 -19.894531 20.046875 -20.785156 20.046875 -21.828125 L 21.296875 -21.828125 L 21.296875 -10.15625 L 20.046875 -10.15625 C 20.015625 -10.632812 19.953125 -11.160156 19.859375 -11.734375 C 19.773438 -12.316406 19.644531 -12.800781 19.46875 -13.1875 C 19.164062 -13.78125 18.671875 -14.320312 17.984375 -14.8125 C 17.304688 -15.300781 16.445312 -15.546875 15.40625 -15.546875 L 12.46875 -15.546875 L 12.46875 -0.984375 L 16.65625 -0.984375 C 17.132812 -0.984375 17.691406 -1.023438 18.328125 -1.109375 C 18.960938 -1.203125 19.625 -1.375 20.3125 -1.625 C 21 -1.875 21.695312 -2.238281 22.40625 -2.71875 C 23.113281 -3.195312 23.796875 -3.820312 24.453125 -4.59375 C 25.285156 -5.539062 25.875 -6.453125 26.21875 -7.328125 C 26.5625 -8.203125 26.773438 -8.984375 26.859375 -9.671875 L 28.109375 -9.671875 L 27.625 0 L 1.875 0 L 1.875 -0.984375 L 5.609375 -0.984375 L 5.609375 -28.203125 L 1.875 -28.203125 L 1.875 -29.171875 Z M 26.953125 -29.171875 "/></g></g></g><g fill="#000000" fill-opacity="1"><g transform="translate(160.968365, 349.874977)"><g><path d="M 12.390625 -29.171875 L 26.8125 -10.5625 L 26.8125 -22.359375 C 26.8125 -23.785156 26.691406 -24.832031 26.453125 -25.5 C 26.222656 -26.164062 26.003906 -26.617188 25.796875 -26.859375 C 25.171875 -27.597656 24.234375 -28.046875 22.984375 -28.203125 L 22.984375 -29.171875 L 31.453125 -29.171875 L 31.453125 -28.203125 C 30.796875 -28.234375 30.257812 -28.117188 29.84375 -27.859375 C 29.425781 -27.609375 29.097656 -27.320312 28.859375 -27 C 28.453125 -26.4375 28.195312 -25.773438 28.09375 -25.015625 C 27.988281 -24.253906 27.9375 -23.429688 27.9375 -22.546875 L 27.9375 0.625 L 26.421875 0.625 L 6.8125 -24.59375 L 6.8125 -6.6875 C 6.8125 -5.757812 6.863281 -4.914062 6.96875 -4.15625 C 7.070312 -3.40625 7.332031 -2.75 7.75 -2.1875 C 7.988281 -1.851562 8.316406 -1.5625 8.734375 -1.3125 C 9.148438 -1.0625 9.679688 -0.953125 10.328125 -0.984375 L 10.328125 0 L 1.875 0 L 1.875 -0.984375 C 2.46875 -1.035156 3.015625 -1.1875 3.515625 -1.4375 C 4.023438 -1.695312 4.410156 -1.988281 4.671875 -2.3125 C 4.910156 -2.613281 5.097656 -2.984375 5.234375 -3.421875 C 5.367188 -3.867188 5.472656 -4.316406 5.546875 -4.765625 C 5.617188 -5.210938 5.660156 -5.628906 5.671875 -6.015625 C 5.691406 -6.398438 5.703125 -6.679688 5.703125 -6.859375 L 5.703125 -24.953125 C 5.703125 -25.453125 5.640625 -25.925781 5.515625 -26.375 C 5.398438 -26.820312 5.207031 -27.160156 4.9375 -27.390625 C 4.789062 -27.546875 4.523438 -27.703125 4.140625 -27.859375 C 3.753906 -28.023438 3.085938 -28.140625 2.140625 -28.203125 L 2.140625 -29.171875 Z M 12.390625 -29.171875 "/></g></g></g><g fill="#000000" fill-opacity="1"><g transform="translate(195.925977, 349.874977)"><g><path d="M 7.3125 0 L 7.3125 -0.984375 L 11.046875 -0.984375 L 11.046875 -28.203125 C 10.722656 -28.234375 10.25 -28.234375 9.625 -28.203125 C 9 -28.171875 8.40625 -28.066406 7.84375 -27.890625 C 6.863281 -27.554688 6.050781 -27.0625 5.40625 -26.40625 C 4.769531 -25.757812 4.273438 -25.125 3.921875 -24.5 C 3.535156 -23.875 3.175781 -23.125 2.84375 -22.25 C 2.519531 -21.375 2.316406 -20.535156 2.234375 -19.734375 L 0.984375 -19.734375 L 1.25 -29.171875 L 27.75 -29.171875 L 28.015625 -19.734375 L 26.765625 -19.734375 C 26.617188 -20.421875 26.421875 -21.1875 26.171875 -22.03125 C 25.921875 -22.875 25.539062 -23.695312 25.03125 -24.5 C 24.5625 -25.269531 23.988281 -25.96875 23.3125 -26.59375 C 22.644531 -27.21875 21.925781 -27.648438 21.15625 -27.890625 C 20.65625 -28.035156 20.09375 -28.128906 19.46875 -28.171875 C 18.84375 -28.222656 18.320312 -28.234375 17.90625 -28.203125 L 17.90625 -0.984375 L 21.65625 -0.984375 L 21.65625 0 Z M 7.3125 0 "/></g></g></g><g fill="#000000" fill-opacity="1"><g transform="translate(226.564052, 349.874977)"><g><path d="M 20.453125 -29.171875 L 20.453125 -28.203125 L 16.703125 -28.203125 L 16.703125 -8.46875 C 16.703125 -7.21875 16.582031 -6.070312 16.34375 -5.03125 C 16.113281 -3.988281 15.609375 -3.039062 14.828125 -2.1875 C 14.054688 -1.320312 13.078125 -0.632812 11.890625 -0.125 C 10.703125 0.375 9.335938 0.625 7.796875 0.625 C 6.671875 0.625 5.660156 0.453125 4.765625 0.109375 C 3.878906 -0.234375 3.128906 -0.6875 2.515625 -1.25 C 1.910156 -1.8125 1.441406 -2.457031 1.109375 -3.1875 C 0.785156 -3.914062 0.625 -4.664062 0.625 -5.4375 C 0.625 -6.59375 0.976562 -7.523438 1.6875 -8.234375 C 2.40625 -8.953125 3.269531 -9.3125 4.28125 -9.3125 C 5.132812 -9.3125 5.914062 -9.003906 6.625 -8.390625 C 7.34375 -7.785156 7.703125 -6.945312 7.703125 -5.875 C 7.703125 -5.019531 7.457031 -4.285156 6.96875 -3.671875 C 6.476562 -3.066406 5.894531 -2.691406 5.21875 -2.546875 C 5.03125 -2.484375 4.757812 -2.421875 4.40625 -2.359375 C 4.050781 -2.296875 3.875 -2.132812 3.875 -1.875 C 3.875 -1.632812 4.132812 -1.363281 4.65625 -1.0625 C 5.175781 -0.769531 5.867188 -0.625 6.734375 -0.625 C 7.679688 -0.625 8.4375 -0.890625 9 -1.421875 C 9.5625 -1.960938 9.84375 -2.585938 9.84375 -3.296875 L 9.84375 -28.203125 L 6.109375 -28.203125 L 6.109375 -29.171875 Z M 20.453125 -29.171875 "/></g></g></g><g fill="#000000" fill-opacity="1"><g transform="translate(250.52244, 349.874977)"><g><path d="M 7.03125 -8.546875 L 6.375 -6.59375 C 6.34375 -6.5 6.289062 -6.328125 6.21875 -6.078125 C 6.144531 -5.828125 6.066406 -5.550781 5.984375 -5.25 C 5.910156 -4.957031 5.84375 -4.640625 5.78125 -4.296875 C 5.726562 -3.953125 5.703125 -3.648438 5.703125 -3.390625 C 5.703125 -2.941406 5.789062 -2.5625 5.96875 -2.25 C 6.144531 -1.9375 6.488281 -1.660156 7 -1.421875 C 7.082031 -1.367188 7.335938 -1.28125 7.765625 -1.15625 C 8.203125 -1.039062 8.878906 -0.984375 9.796875 -0.984375 L 9.796875 0 L 0 0 L 0 -0.984375 C 0.6875 -1.015625 1.332031 -1.144531 1.9375 -1.375 C 2.539062 -1.613281 3.050781 -2.046875 3.46875 -2.671875 C 3.707031 -3.023438 3.921875 -3.445312 4.109375 -3.9375 C 4.304688 -4.425781 4.570312 -5.101562 4.90625 -5.96875 L 13.59375 -29.796875 L 16 -29.796875 L 26.375 -0.984375 L 29.09375 -0.984375 L 29.09375 0 L 15.59375 0 L 15.59375 -0.984375 L 19.15625 -0.984375 L 16.34375 -8.546875 Z M 11.71875 -21.609375 L 7.3125 -9.53125 L 16.171875 -9.53125 Z M 11.71875 -21.609375 "/></g></g></g><g fill="#000000" fill-opacity="1"><g transform="translate(281.249573, 349.874977)"><g><path d="M 16.21875 -29.171875 L 16.21875 -28.203125 L 12.46875 -28.203125 L 12.46875 -13.90625 L 21.515625 -22.5 C 21.722656 -22.707031 21.953125 -22.953125 22.203125 -23.234375 C 22.453125 -23.515625 22.679688 -23.8125 22.890625 -24.125 C 23.097656 -24.4375 23.269531 -24.757812 23.40625 -25.09375 C 23.539062 -25.4375 23.609375 -25.789062 23.609375 -26.15625 C 23.609375 -26.863281 23.296875 -27.410156 22.671875 -27.796875 C 22.398438 -27.941406 22.066406 -28.050781 21.671875 -28.125 C 21.273438 -28.207031 20.910156 -28.234375 20.578125 -28.203125 L 20.578125 -29.171875 L 31.5 -29.171875 L 31.5 -28.203125 C 30.457031 -27.992188 29.5625 -27.65625 28.8125 -27.1875 C 28.070312 -26.726562 27.332031 -26.175781 26.59375 -25.53125 C 26.320312 -25.289062 25.984375 -24.984375 25.578125 -24.609375 C 25.179688 -24.242188 24.773438 -23.863281 24.359375 -23.46875 C 23.953125 -23.082031 23.578125 -22.734375 23.234375 -22.421875 C 22.890625 -22.117188 22.660156 -21.90625 22.546875 -21.78125 L 19.828125 -19.15625 L 29.984375 -0.984375 L 31.5 -0.984375 L 31.5 0 L 18.359375 0 L 18.359375 -0.984375 L 22 -0.984375 L 14.5625 -14.25 L 12.46875 -12.34375 L 12.46875 -0.984375 L 16.21875 -0.984375 L 16.21875 0 L 1.875 0 L 1.875 -0.984375 L 5.609375 -0.984375 L 5.609375 -28.203125 L 1.875 -28.203125 L 1.875 -29.171875 Z M 16.21875 -29.171875 "/></g></g></g></svg>